name rise35.5848peak51.9257fall54.8793.mot
datacolumns 19
datarows 27
range 22.33324700000000 22.37657500000000
endheader
time	ground_force1_vx	ground_force1_vy	ground_force1_vz	ground_force1_px	ground_force1_py	ground_force1_pz	ground_force2_vx	ground_force2_vy	ground_force2_vz	ground_force2_px	ground_force2_py	ground_force2_pz	ground_torque1_x	ground_torque1_y	ground_torque1_z	ground_torque2_x	ground_torque2_y	ground_torque2_z	
22.33324700000000	73.89105300000000	803.46471399999996	56.17272500000000	0.34521800000000	0.00000000000000	0.10762900000000	0.00000000000000	0.00000000000000	0.00000000000000	0.00000000000000	0.00000000000000	0.00000000000000	0.00000000000000	22.71060100000000	0.00000000000000	0.00000000000000	0.00000000000000	0.00000000000000	
22.33491100000000	73.23824100000000	803.68917299999998	56.13166900000000	0.34442900000000	0.00000000000000	0.10760900000000	0.00000000000000	0.00000000000000	0.00000000000000	0.00000000000000	0.00000000000000	0.00000000000000	0.00000000000000	22.70450900000000	0.00000000000000	0.00000000000000	0.00000000000000	0.00000000000000	
22.33657800000000	72.58542000000000	803.78410199999996	56.08607000000000	0.34365000000000	0.00000000000000	0.10758900000000	0.00000000000000	0.00000000000000	0.00000000000000	0.00000000000000	0.00000000000000	0.00000000000000	0.00000000000000	22.69706600000000	0.00000000000000	0.00000000000000	0.00000000000000	0.00000000000000	
22.33825800000000	71.93298700000000	803.75215900000001	56.03576600000000	0.34288100000000	0.00000000000000	0.10757000000000	0.00000000000000	0.00000000000000	0.00000000000000	0.00000000000000	0.00000000000000	0.00000000000000	0.00000000000000	22.68807800000000	0.00000000000000	0.00000000000000	0.00000000000000	0.00000000000000	
22.33991300000000	71.28128300000000	803.59614999999997	55.98057100000000	0.34212000000000	0.00000000000000	0.10755000000000	0.00000000000000	0.00000000000000	0.00000000000000	0.00000000000000	0.00000000000000	0.00000000000000	0.00000000000000	22.67733500000000	0.00000000000000	0.00000000000000	0.00000000000000	0.00000000000000	
22.34158000000000	70.63059500000000	803.31903000000000	55.92028300000000	0.34136600000000	0.00000000000000	0.10753000000000	0.00000000000000	0.00000000000000	0.00000000000000	0.00000000000000	0.00000000000000	0.00000000000000	0.00000000000000	22.66461700000000	0.00000000000000	0.00000000000000	0.00000000000000	0.00000000000000	
22.34324900000000	69.98115799999999	802.92390000000000	55.85468200000000	0.34061700000000	0.00000000000000	0.10751100000000	0.00000000000000	0.00000000000000	0.00000000000000	0.00000000000000	0.00000000000000	0.00000000000000	0.00000000000000	22.64969900000000	0.00000000000000	0.00000000000000	0.00000000000000	0.00000000000000	
22.34490800000000	69.33316300000000	802.41400299999998	55.78354000000000	0.33987100000000	0.00000000000000	0.10749100000000	0.00000000000000	0.00000000000000	0.00000000000000	0.00000000000000	0.00000000000000	0.00000000000000	0.00000000000000	22.63235100000000	0.00000000000000	0.00000000000000	0.00000000000000	0.00000000000000	
22.34657300000000	68.68675200000000	801.79272100000003	55.70662100000000	0.33912800000000	0.00000000000000	0.10747200000000	0.00000000000000	0.00000000000000	0.00000000000000	0.00000000000000	0.00000000000000	0.00000000000000	0.00000000000000	22.61234100000000	0.00000000000000	0.00000000000000	0.00000000000000	0.00000000000000	
22.34824300000000	68.04203099999999	801.06356600000004	55.62368800000000	0.33838700000000	0.00000000000000	0.10745200000000	0.00000000000000	0.00000000000000	0.00000000000000	0.00000000000000	0.00000000000000	0.00000000000000	0.00000000000000	22.58943800000000	0.00000000000000	0.00000000000000	0.00000000000000	0.00000000000000	
22.34990900000000	67.39906499999999	800.23018000000002	55.53450500000000	0.33764400000000	0.00000000000000	0.10743300000000	0.00000000000000	0.00000000000000	0.00000000000000	0.00000000000000	0.00000000000000	0.00000000000000	0.00000000000000	22.56341500000000	0.00000000000000	0.00000000000000	0.00000000000000	0.00000000000000	
22.35157200000000	66.75788799999999	799.29632500000002	55.43884100000000	0.33689900000000	0.00000000000000	0.10741300000000	0.00000000000000	0.00000000000000	0.00000000000000	0.00000000000000	0.00000000000000	0.00000000000000	0.00000000000000	22.53405100000000	0.00000000000000	0.00000000000000	0.00000000000000	0.00000000000000	
22.35324100000000	66.11850300000000	798.26588000000004	55.33647600000000	0.33615100000000	0.00000000000000	0.10739400000000	0.00000000000000	0.00000000000000	0.00000000000000	0.00000000000000	0.00000000000000	0.00000000000000	0.00000000000000	22.50113400000000	0.00000000000000	0.00000000000000	0.00000000000000	0.00000000000000	
22.35491000000000	65.48088600000000	797.14282600000001	55.22719900000000	0.33539800000000	0.00000000000000	0.10737400000000	0.00000000000000	0.00000000000000	0.00000000000000	0.00000000000000	0.00000000000000	0.00000000000000	0.00000000000000	22.46446100000000	0.00000000000000	0.00000000000000	0.00000000000000	0.00000000000000	
22.35657700000000	64.84499300000000	795.93124999999998	55.11081400000000	0.33463800000000	0.00000000000000	0.10735500000000	0.00000000000000	0.00000000000000	0.00000000000000	0.00000000000000	0.00000000000000	0.00000000000000	0.00000000000000	22.42384400000000	0.00000000000000	0.00000000000000	0.00000000000000	0.00000000000000	
22.35824100000000	64.21075900000000	794.63532399999997	54.98714600000000	0.33387000000000	0.00000000000000	0.10733500000000	0.00000000000000	0.00000000000000	0.00000000000000	0.00000000000000	0.00000000000000	0.00000000000000	0.00000000000000	22.37910600000000	0.00000000000000	0.00000000000000	0.00000000000000	0.00000000000000	
22.35990600000000	63.57810200000000	793.25930700000004	54.85603600000000	0.33309300000000	0.00000000000000	0.10731500000000	0.00000000000000	0.00000000000000	0.00000000000000	0.00000000000000	0.00000000000000	0.00000000000000	0.00000000000000	22.33009000000000	0.00000000000000	0.00000000000000	0.00000000000000	0.00000000000000	
22.36157500000000	62.94693100000000	791.80752900000005	54.71735000000000	0.33230500000000	0.00000000000000	0.10729600000000	0.00000000000000	0.00000000000000	0.00000000000000	0.00000000000000	0.00000000000000	0.00000000000000	0.00000000000000	22.27665100000000	0.00000000000000	0.00000000000000	0.00000000000000	0.00000000000000	
22.36324300000000	62.31714400000000	790.28438500000004	54.57097800000000	0.33150600000000	0.00000000000000	0.10727600000000	0.00000000000000	0.00000000000000	0.00000000000000	0.00000000000000	0.00000000000000	0.00000000000000	0.00000000000000	22.21866800000000	0.00000000000000	0.00000000000000	0.00000000000000	0.00000000000000	
22.36491500000000	61.68863300000000	788.69432400000005	54.41683600000000	0.33069300000000	0.00000000000000	0.10725600000000	0.00000000000000	0.00000000000000	0.00000000000000	0.00000000000000	0.00000000000000	0.00000000000000	0.00000000000000	22.15603700000000	0.00000000000000	0.00000000000000	0.00000000000000	0.00000000000000	
22.36657400000000	61.06128900000000	787.04183799999998	54.25486500000000	0.32986600000000	0.00000000000000	0.10723600000000	0.00000000000000	0.00000000000000	0.00000000000000	0.00000000000000	0.00000000000000	0.00000000000000	0.00000000000000	22.08867600000000	0.00000000000000	0.00000000000000	0.00000000000000	0.00000000000000	
22.36824000000000	60.43500300000000	785.33145400000001	54.08503700000000	0.32902400000000	0.00000000000000	0.10721600000000	0.00000000000000	0.00000000000000	0.00000000000000	0.00000000000000	0.00000000000000	0.00000000000000	0.00000000000000	22.01652200000000	0.00000000000000	0.00000000000000	0.00000000000000	0.00000000000000	
22.36991300000000	59.80966700000000	783.56772400000000	53.90735200000000	0.32816600000000	0.00000000000000	0.10719600000000	0.00000000000000	0.00000000000000	0.00000000000000	0.00000000000000	0.00000000000000	0.00000000000000	0.00000000000000	21.93953600000000	0.00000000000000	0.00000000000000	0.00000000000000	0.00000000000000	
22.37157500000000	59.18518000000000	781.75521100000003	53.72183900000000	0.32729000000000	0.00000000000000	0.10717600000000	0.00000000000000	0.00000000000000	0.00000000000000	0.00000000000000	0.00000000000000	0.00000000000000	0.00000000000000	21.85770100000000	0.00000000000000	0.00000000000000	0.00000000000000	0.00000000000000	
22.37325500000000	58.56145000000000	779.89848199999994	53.52855700000000	0.32639700000000	0.00000000000000	0.10715600000000	0.00000000000000	0.00000000000000	0.00000000000000	0.00000000000000	0.00000000000000	0.00000000000000	0.00000000000000	21.77102200000000	0.00000000000000	0.00000000000000	0.00000000000000	0.00000000000000	
22.37490900000000	57.93839300000000	778.00209600000005	53.32759500000000	0.32548400000000	0.00000000000000	0.10713500000000	0.00000000000000	0.00000000000000	0.00000000000000	0.00000000000000	0.00000000000000	0.00000000000000	0.00000000000000	21.67952600000000	0.00000000000000	0.00000000000000	0.00000000000000	0.00000000000000	
22.37657500000000	57.31593900000000	776.07059300000003	53.11907100000000	0.32455300000000	0.00000000000000	0.10711500000000	0.00000000000000	0.00000000000000	0.00000000000000	0.00000000000000	0.00000000000000	0.00000000000000	0.00000000000000	21.58326300000000	0.00000000000000	0.00000000000000	0.00000000000000	0.00000000000000	
